<svg width="35" height="34" viewBox="0 0 35 34" fill="none" xmlns="http://www.w3.org/2000/svg">
<g clip-path="url(#clip0_166_1606)">
<path d="M4.48535 21.911L2.6909 29.6554C2.629 29.9385 2.63112 30.2319 2.69711 30.5141C2.7631 30.7962 2.8913 31.0601 3.07233 31.2864C3.25336 31.5127 3.48265 31.6957 3.74346 31.822C4.00427 31.9483 4.29001 32.0148 4.57979 32.0166C4.71477 32.0311 4.85092 32.0311 4.9859 32.0166L12.7776 30.2221L27.7376 15.3188L19.3887 6.98877L4.48535 21.911Z" fill="#825FE4"/>
<path d="M32.441 7.85764L26.8687 2.28542C26.5024 1.92092 26.0066 1.71631 25.4899 1.71631C24.9731 1.71631 24.4773 1.92092 24.111 2.28542L21.0132 5.3832L29.3526 13.7226L32.4504 10.6249C32.6317 10.4427 32.7753 10.2265 32.8729 9.98875C32.9706 9.75099 33.0204 9.49632 33.0195 9.23929C33.0186 8.98227 32.9671 8.72794 32.8678 8.49086C32.7685 8.25378 32.6235 8.0386 32.441 7.85764Z" fill="#825FE4"/>
</g>
<defs>
<clipPath id="clip0_166_1606">
<rect width="34" height="34" fill="white" transform="translate(0.5)"/>
</clipPath>
</defs>
</svg>
