<svg width="25" height="24" viewBox="0 0 25 24" fill="none" xmlns="http://www.w3.org/2000/svg">
<g clip-path="url(#clip0_166_1615)">
<path d="M3.3135 15.4664L2.04683 20.9331C2.00314 21.1329 2.00464 21.34 2.05122 21.5392C2.0978 21.7384 2.18829 21.9246 2.31608 22.0844C2.44386 22.2441 2.60572 22.3733 2.78982 22.4625C2.97392 22.5516 3.17561 22.5985 3.38017 22.5998C3.47545 22.6101 3.57156 22.6101 3.66683 22.5998L9.16683 21.3331L19.7268 10.8131L13.8335 4.93311L3.3135 15.4664Z" fill="#825FE4"/>
<path d="M23.0466 5.54648L19.1133 1.61315C18.8547 1.35586 18.5048 1.21143 18.14 1.21143C17.7752 1.21143 17.4252 1.35586 17.1666 1.61315L14.98 3.79982L20.8666 9.68648L23.0533 7.49982C23.1813 7.3712 23.2826 7.21862 23.3516 7.05079C23.4205 6.88297 23.4557 6.7032 23.455 6.52177C23.4544 6.34034 23.418 6.16081 23.348 5.99346C23.2779 5.82611 23.1755 5.67422 23.0466 5.54648Z" fill="#825FE4"/>
</g>
<defs>
<clipPath id="clip0_166_1615">
<rect width="24" height="24" fill="white" transform="translate(0.5)"/>
</clipPath>
</defs>
</svg>
