<svg width="32" height="32" viewBox="0 0 32 32" fill="none" xmlns="http://www.w3.org/2000/svg">
<g clip-path="url(#clip0_166_1177)">
<path d="M16.0001 4C13.9182 3.9993 11.872 4.54025 10.0624 5.5697C8.25283 6.59914 6.74221 8.08167 5.67899 9.8716C4.61576 11.6615 4.0365 13.6973 3.99813 15.7788C3.95976 17.8604 4.4636 19.9161 5.46013 21.744L4.04013 26.724C3.99017 26.8989 3.98884 27.0841 4.03628 27.2596C4.08373 27.4352 4.17816 27.5945 4.3094 27.7204C4.44065 27.8463 4.60374 27.934 4.78114 27.9741C4.95853 28.0142 5.14349 28.0052 5.31613 27.948L9.99213 26.39C11.5859 27.3109 13.3701 27.8529 15.2068 27.974C17.0435 28.0951 18.8834 27.792 20.5842 27.0883C22.285 26.3845 23.8012 25.2989 25.0153 23.9154C26.2295 22.532 27.1091 20.8878 27.5861 19.11C28.0632 17.3322 28.1248 15.4685 27.7664 13.6631C27.4079 11.8576 26.6389 10.1589 25.5189 8.69816C24.3989 7.23747 22.9578 6.05401 21.3073 5.23933C19.6567 4.42466 17.8408 4.00062 16.0001 4ZM12.0001 14C12.0001 13.7348 12.1055 13.4804 12.293 13.2929C12.4806 13.1054 12.7349 13 13.0001 13H19.0001C19.2654 13 19.5197 13.1054 19.7072 13.2929C19.8948 13.4804 20.0001 13.7348 20.0001 14C20.0001 14.2652 19.8948 14.5196 19.7072 14.7071C19.5197 14.8946 19.2654 15 19.0001 15H13.0001C12.7349 15 12.4806 14.8946 12.293 14.7071C12.1055 14.5196 12.0001 14.2652 12.0001 14ZM13.0001 17H17.0001C17.2654 17 17.5197 17.1054 17.7072 17.2929C17.8948 17.4804 18.0001 17.7348 18.0001 18C18.0001 18.2652 17.8948 18.5196 17.7072 18.7071C17.5197 18.8946 17.2654 19 17.0001 19H13.0001C12.7349 19 12.4806 18.8946 12.293 18.7071C12.1055 18.5196 12.0001 18.2652 12.0001 18C12.0001 17.7348 12.1055 17.4804 12.293 17.2929C12.4806 17.1054 12.7349 17 13.0001 17Z" fill="#F5F5F7"/>
</g>
<defs>
<clipPath id="clip0_166_1177">
<rect width="32" height="32" rx="16" fill="white"/>
</clipPath>
</defs>
</svg>
