<svg width="25" height="25" viewBox="0 0 25 25" fill="none" xmlns="http://www.w3.org/2000/svg">
<path d="M12.8125 0.3125C10.402 0.3125 8.04572 1.02728 6.04149 2.36646C4.03727 3.70564 2.47517 5.60907 1.55272 7.83605C0.630281 10.063 0.388927 12.5135 0.859185 14.8777C1.32944 17.2418 2.49019 19.4134 4.19464 21.1179C5.89909 22.8223 8.0707 23.9831 10.4348 24.4533C12.799 24.9236 15.2495 24.6822 17.4765 23.7598C19.7034 22.8373 21.6069 21.2752 22.946 19.271C24.2852 17.2668 25 14.9105 25 12.5C24.9938 9.26958 23.7078 6.17324 21.4235 3.88898C19.1393 1.60472 16.0429 0.318695 12.8125 0.3125ZM16.0938 18.125C16.0938 18.3736 15.995 18.6121 15.8192 18.7879C15.6434 18.9637 15.4049 19.0625 15.1563 19.0625C14.9076 19.0625 14.6692 18.9637 14.4933 18.7879C14.3175 18.6121 14.2188 18.3736 14.2188 18.125V15.3125H9.53126C9.38171 15.3117 9.23455 15.275 9.10204 15.2057C8.96953 15.1364 8.85552 15.0364 8.76954 14.9141C8.68196 14.7917 8.62552 14.6499 8.6051 14.5008C8.58468 14.3518 8.6009 14.2 8.65235 14.0586L11.4648 6.08984C11.5629 5.87639 11.7374 5.7075 11.954 5.61659C12.1706 5.52569 12.4134 5.51939 12.6344 5.59895C12.8554 5.67851 13.0385 5.83813 13.1474 6.04622C13.2563 6.25431 13.2832 6.49571 13.2227 6.72266L10.8555 13.4375H14.2188V10.625C14.2188 10.3764 14.3175 10.1379 14.4933 9.96209C14.6692 9.78627 14.9076 9.6875 15.1563 9.6875C15.4049 9.6875 15.6434 9.78627 15.8192 9.96209C15.995 10.1379 16.0938 10.3764 16.0938 10.625V18.125Z" fill="#F24E1E"/>
</svg>
